<svg width="377" height="512" viewBox="0 0 377 512" fill="none" xmlns="http://www.w3.org/2000/svg">
<path d="M135.616 170.169H151.026C156.755 170.169 161.402 165.522 161.402 159.793V144.382C161.402 138.654 156.755 134.007 151.026 134.007H135.616C129.887 134.007 125.24 138.654 125.24 144.382V159.793C125.233 165.522 129.88 170.169 135.616 170.169ZM131.167 144.941C131.167 142.176 133.409 139.934 136.174 139.934H150.468C153.233 139.934 155.475 142.176 155.475 144.941V159.235C155.475 162 153.233 164.242 150.468 164.242H136.174C133.409 164.242 131.167 162 131.167 159.235V144.941Z" fill="#144F53"/>
<path d="M140.376 159.199H146.267C148.573 159.199 150.44 157.332 150.44 155.027V149.135C150.44 146.83 148.573 144.962 146.267 144.962H140.376C138.07 144.962 136.203 146.83 136.203 149.135V155.027C136.203 157.332 138.07 159.199 140.376 159.199Z" fill="#144F53"/>
<path d="M193.236 134H188.717V138.519H193.236V134Z" fill="#144F53"/>
<path d="M211.304 165.628H206.785V170.147H211.304V165.628Z" fill="#144F53"/>
<path d="M247.225 179.186H242.706V183.705H238.413V179.186H233.893H229.374V183.705H229.148H224.855V179.186H220.343V183.705H224.636V188.225H220.343V183.705H215.823H215.597H211.304H211.078V179.186H206.558H202.039V183.705H206.558V188.225H211.078H211.304H215.597H215.823H220.116V192.744V194.738H224.636H238.186H238.215V197.263H242.72V199.781H242.706V201.775H247.225V201.768H247.239V197.263V197.249V192.744H247.225V192.737H251.744V188.218V183.698H247.225V179.186ZM238.186 188.218H233.667V183.698H233.893H238.186V188.218Z" fill="#144F53"/>
<path d="M229.383 174.667H224.863V179.186H229.383V174.667Z" fill="#144F53"/>
<path d="M183.744 134H179.225V138.519H183.744V134Z" fill="#144F53"/>
<path d="M183.743 142.812H179.223V138.519H174.711V142.812H166.238V147.332H183.743V142.812Z" fill="#144F53"/>
<path d="M170.192 134H166.238V137.649V138.519H170.192H174.711V134H170.192Z" fill="#144F53"/>
<path d="M157.088 174.667H152.568V179.186H157.088V174.667Z" fill="#144F53"/>
<path d="M241.362 134H225.951C220.223 134 215.576 138.647 215.576 144.375V159.786C215.576 165.515 220.223 170.162 225.951 170.162H241.362C247.091 170.162 251.738 165.515 251.738 159.786V144.375C251.745 138.647 247.098 134 241.362 134ZM245.811 159.235C245.811 162 243.569 164.242 240.804 164.242H226.51C223.745 164.242 221.503 162 221.503 159.235V144.941C221.503 142.176 223.745 139.934 226.51 139.934H240.804C243.569 139.934 245.811 142.176 245.811 144.941V159.235Z" fill="#144F53"/>
<path d="M236.603 144.969H230.712C228.406 144.969 226.539 146.837 226.539 149.142V155.034C226.539 157.339 228.406 159.206 230.712 159.206H236.603C238.909 159.206 240.776 157.339 240.776 155.034V149.142C240.776 146.837 238.909 144.969 236.603 144.969Z" fill="#144F53"/>
<path d="M211.08 255.767H206.561V260.286H211.08V255.767Z" fill="#144F53"/>
<path d="M251.746 210.807H247.227V215.326H251.746V210.807Z" fill="#144F53"/>
<path d="M247.226 206.295H242.707V210.814H247.226V206.295Z" fill="#144F53"/>
<path d="M251.746 201.775H247.227V206.295H251.746V201.775Z" fill="#144F53"/>
<path d="M229.156 201.775H224.637V206.295H229.156V201.775Z" fill="#144F53"/>
<path d="M215.597 206.295V201.775H211.078V206.295V210.807H215.597H220.117H224.636V206.295H220.117H215.597Z" fill="#144F53"/>
<path d="M188.716 206.068H183.744V210.588H188.716V206.068Z" fill="#144F53"/>
<path d="M233.668 199.781V197.256H229.148V199.781V201.775H233.668V199.781Z" fill="#144F53"/>
<path d="M170.644 255.767H166.125V260.286H170.644V255.767Z" fill="#144F53"/>
<path d="M179.678 255.767H175.158V260.286H179.678V255.767Z" fill="#144F53"/>
<path d="M188.49 255.767H183.971V260.286H188.49V255.767Z" fill="#144F53"/>
<path d="M251.746 224.365H247.227V228.884H251.746V224.365Z" fill="#144F53"/>
<path d="M247.226 228.884H242.707V233.404H247.226V228.884Z" fill="#144F53"/>
<path d="M221.291 228.884H223.462C224.113 228.884 224.636 228.361 224.636 227.71V225.539C224.636 224.888 224.113 224.365 223.462 224.365H221.291C220.641 224.365 220.117 224.888 220.117 225.539V227.71C220.117 228.361 220.641 228.884 221.291 228.884Z" fill="#144F53"/>
<path d="M146.041 235.087H140.149C137.844 235.087 135.977 236.954 135.977 239.259V245.151C135.977 247.456 137.844 249.324 140.149 249.324H146.041C148.346 249.324 150.213 247.456 150.213 245.151V239.259C150.206 236.954 148.339 235.087 146.041 235.087Z" fill="#144F53"/>
<path d="M157.088 183.705H152.568V188.218V192.737H157.088V188.218H161.607V183.705H157.088Z" fill="#144F53"/>
<path d="M152.568 179.186H148.049V183.705H152.568V179.186Z" fill="#144F53"/>
<path d="M143.536 179.186V174.596H139.017V179.186H134.498L134.462 174.596L125.459 174.667V179.186V183.705V188.218V192.737V194.731V197.256H130.007H130.431H134.519V192.737H139.017H143.536V188.218H139.017H134.498V192.737H130.431H130.007H129.978V188.218V183.705H134.498H139.017H143.536V188.218H148.048V183.705H143.536V179.186Z" fill="#144F53"/>
<path d="M197.735 201.768H202.099V197.362H206.116H206.505H206.561V201.768V201.775H211.081V201.768V199.781V197.355H211.109V197.256H215.6V199.774V201.768H220.119H224.638V199.774V197.256H220.119H215.614V192.744H215.6V192.737H211.081H206.561H202.268V188.218H197.749V183.698H193.23V179.179V174.66H188.71H184.191V179.179H179.679V183.698V188.218H175.159V183.698H170.64V179.179V174.66H175.159V179.179H179.679V174.66V170.14H184.198V165.621H179.679H179.452V161.102H179.679H184.198V165.621H188.717V170.14H193.237V174.66H197.756V170.14V165.621H202.275H206.795V161.102V156.582H202.275V152.063H197.756H193.237V147.544H197.756V143.024H202.275H206.795V147.544H202.275V152.063H206.795H211.003V138.512H206.795H202.275H197.756H193.237V143.032H188.717V147.551V152.07V156.589H184.198H179.679V152.07H175.159V156.589H170.64V152.07H166.241V165.621H170.64V161.102H174.933V165.621H170.64V170.14H166.121V174.66V179.179V183.698V188.218H161.602V192.737H166.121V188.218H170.64V192.737H175.159H179.679H184.198H188.717H193.237H197.756H193.173V197.242V197.348V201.542H188.717V206.061H193.237H197.756V201.768H197.735ZM197.876 194.731H201.985V197.249H197.876V194.731ZM193.237 156.597H197.756V161.116H193.237V156.597ZM193.237 188.218H188.717H184.198V183.698H188.717H193.237V188.218Z" fill="#144F53"/>
<path d="M143.085 206.068H147.605V201.577H152.124V206.068H156.643V201.577H165.675V206.068H170.194H174.713V210.588H170.194V215.107H174.713V219.626H179.233H183.752V215.107V210.588H179.233V206.068H183.752V201.549H179.233H174.791V197.058H170.286H170.272H165.781H165.767H147.569V201.549H143.085H142.866V197.058H138.347V199.781H138.34V201.549H134.047V206.068H129.527V210.588V215.107V219.626C129.527 222.109 131.543 224.124 134.025 224.124H138.566V219.626H134.047V215.107V210.588H138.566V215.107H143.085V210.588V206.068Z" fill="#144F53"/>
<path d="M129.527 201.549H125.008V206.068H129.527V201.549Z" fill="#144F53"/>
<path d="M156.635 224.117H147.597V219.619H152.116H156.635V215.1V210.581H152.116H147.597V215.1H143.077V219.619V224.117L136.832 224.124C130.297 224.131 125 229.429 125 235.964V249.903C125 255.632 129.647 260.279 135.375 260.279H150.786C156.515 260.279 161.162 255.632 161.162 249.903V224.117H161.14V219.619H156.621V224.117H156.635ZM155.249 249.345C155.249 252.11 153.007 254.352 150.242 254.352H135.948C133.183 254.352 130.941 252.11 130.941 249.345V235.051C130.941 232.286 133.183 230.044 135.948 230.044H147.745C151.89 230.044 155.249 233.403 155.249 237.548V249.345Z" fill="#144F53"/>
<path d="M247.226 237.916H242.707H238.188V242.435H233.668H229.149V237.916H233.668H238.188V233.396H233.668V228.877V224.358V219.838H238.188V224.358H242.707V219.838H247.226V215.319H242.707V210.8H238.188V206.281H242.707V201.761H238.188H233.668V206.281V210.8H229.149V215.319H224.63H220.11H215.591H211.079V219.838H206.786H202.267V215.319H206.786V210.8H202.267V206.054H197.747V210.8V215.319H193.228V210.8H188.709V215.319V219.838V224.358H193.228H197.521V228.877H202.04V224.358H202.267H206.786H211.079V228.877V233.396V237.916H206.56H202.04H197.521V242.435H193.002V246.728H188.709H188.482H184.189V242.435V242.209V237.916H188.709H193.002H193.228H197.521V233.396V228.877H193.002V233.396H188.709V228.877V224.358H184.189V228.651H179.677V224.131H175.158H174.705V219.612H170.186V215.093H165.674V210.574H161.154V215.093V219.612H165.674H170.193V224.131H166.459V237.682H170.646V233.163V228.658H175.165V233.177H179.684H184.203V233.403V237.696H179.677H175.158H170.638V242.216H166.452V246.735H170.638V251.254V255.774H175.158V251.254H179.677H184.196H188.489V255.774H193.009H197.528V251.481H202.047V255.774H206.567V251.481H211.086V246.961H206.567V251.254H202.047V246.961V242.442H206.567H211.086V246.961H215.605V251.481H220.125V256H217.416V260.519H242.714H247.233H251.753V256H247.233V251.481V246.961H242.714V242.442H247.233V246.961H251.753V242.442V237.923H247.226V237.916ZM179.677 242.435V246.728H175.158V242.209H179.677V242.435ZM197.528 251.247H193.009V246.954H197.528V251.247ZM215.598 228.884V224.365V219.846H220.117H224.637H229.156V224.365V228.884V233.403H224.637H220.117H215.598V228.884ZM242.707 255.993H238.188V251.474H233.668V255.993H224.63V251.474V246.954H220.11V242.435H215.591V237.916H220.11H224.63V242.435V246.954H229.149V251.474H233.668V246.954H238.188V251.474H242.707V255.993Z" fill="#144F53"/>
<path d="M81.4327 374.826C79.1227 374.254 77.4287 373.968 77.4287 371.878C77.4287 370.58 78.6167 369.722 80.8387 369.722C83.3247 369.722 84.5127 370.822 84.7987 372.934H86.7787C86.5147 369.678 84.1827 367.962 80.8387 367.962C77.3627 367.962 75.4487 369.612 75.4487 372.098C75.4487 375.156 78.2647 375.97 80.6187 376.52C84.1387 377.334 85.3047 377.73 85.3047 379.886C85.3047 381.294 84.3367 382.548 81.6087 382.548C78.3087 382.548 76.9887 380.876 76.7687 378.72H74.7887C75.0087 382.328 77.8907 384.308 81.6087 384.308C85.5907 384.308 87.2847 382.174 87.2847 379.886C87.2847 376.3 84.9747 375.706 81.4327 374.826ZM97.2502 376.828H99.0102C98.7462 374.32 96.8542 372.472 94.0822 372.472C90.8042 372.472 88.6482 374.87 88.6482 378.39C88.6482 381.91 90.8042 384.308 94.0822 384.308C96.8542 384.308 98.8562 382.416 99.0102 379.864H97.2502C97.1622 381.206 96.3482 382.768 94.0822 382.768C91.4202 382.768 90.4082 380.502 90.4082 378.39C90.4082 376.278 91.4202 374.012 94.0822 374.012C96.3262 374.012 97.1622 375.596 97.2502 376.828ZM107.773 375.64C107.773 376.762 106.915 377.004 105.023 377.356C102.119 377.906 100.227 378.566 100.227 381.118C100.227 383.01 101.657 384.308 103.923 384.308C105.771 384.308 107.025 383.648 107.729 382.592H107.773C108.081 383.824 108.719 384.11 109.775 384.11C110.105 384.11 110.347 384.088 110.809 383.934V382.702C109.687 382.834 109.533 382.35 109.533 381.47V376.014C109.533 373.308 107.619 372.472 105.485 372.472C102.229 372.472 100.887 374.1 100.777 376.256H102.537C102.647 374.628 103.351 374.012 105.485 374.012C107.289 374.012 107.773 374.76 107.773 375.64ZM104.099 382.768C102.647 382.768 101.987 382.13 101.987 381.03C101.987 379.688 102.999 379.138 105.177 378.676C106.365 378.434 107.443 378.126 107.773 377.796V379.666C107.773 381.822 106.189 382.768 104.099 382.768ZM117.624 372.472C115.71 372.472 114.522 373.33 113.928 374.122H113.884V372.78H112.124V384H113.884V377.004C113.884 375.266 115.204 374.012 117.184 374.012C118.944 374.012 119.626 375.156 119.626 376.608V384H121.386V376.168C121.386 373.594 119.67 372.472 117.624 372.472ZM133.035 374.32V372.78H130.835V369.04H129.075V372.78H127.425V374.32H129.075V381.25C129.075 383.538 130.219 384.132 131.715 384.132C132.177 384.132 132.639 384.088 133.035 384V382.46C131.539 382.57 130.835 382.35 130.835 381.074V374.32H133.035ZM140.376 372.472C138.462 372.472 137.274 373.33 136.68 374.122H136.636V368.27H134.876V384H136.636V377.004C136.636 375.266 137.956 374.012 139.936 374.012C141.696 374.012 142.378 375.156 142.378 376.608V384H144.138V376.168C144.138 373.594 142.422 372.472 140.376 372.472ZM147.599 370.602C148.105 370.602 148.699 370.228 148.699 369.546C148.699 368.864 148.105 368.49 147.599 368.49C147.115 368.49 146.499 368.864 146.499 369.546C146.499 370.228 147.115 370.602 147.599 370.602ZM146.719 372.78V384H148.479V372.78H146.719ZM155.672 377.334C154.11 376.96 152.592 376.85 152.592 375.53C152.592 374.65 153.45 374.012 155.034 374.012C157.146 374.012 157.564 375.134 157.74 375.992H159.5C159.324 374.056 157.828 372.472 155.034 372.472C152.394 372.472 150.832 373.902 150.832 375.662C150.832 378.302 153.384 378.5 155.1 378.918C156.706 379.314 158.18 379.402 158.18 381.03C158.18 381.778 157.432 382.768 155.518 382.768C152.702 382.768 152.262 381.514 152.152 380.26H150.392C150.502 382.68 152.086 384.308 155.518 384.308C158.07 384.308 159.94 382.966 159.94 380.92C159.94 378.148 157.674 377.818 155.672 377.334ZM174.014 376.828H175.774C175.51 374.32 173.618 372.472 170.846 372.472C167.568 372.472 165.412 374.87 165.412 378.39C165.412 381.91 167.568 384.308 170.846 384.308C173.618 384.308 175.62 382.416 175.774 379.864H174.014C173.926 381.206 173.112 382.768 170.846 382.768C168.184 382.768 167.172 380.502 167.172 378.39C167.172 376.278 168.184 374.012 170.846 374.012C173.09 374.012 173.926 375.596 174.014 376.828ZM182.32 384.308C178.888 384.308 176.82 381.888 176.82 378.39C176.82 374.892 178.888 372.472 182.32 372.472C185.73 372.472 187.798 374.892 187.798 378.39C187.798 381.888 185.73 384.308 182.32 384.308ZM182.32 382.768C184.828 382.768 186.038 380.788 186.038 378.39C186.038 375.992 184.828 374.012 182.32 374.012C179.79 374.012 178.58 375.992 178.58 378.39C178.58 380.788 179.79 382.768 182.32 382.768ZM197.561 368.27V374.232H197.517C196.857 373.264 195.801 372.472 193.997 372.472C191.181 372.472 188.937 374.694 188.937 378.39C188.937 382.086 191.181 384.308 193.997 384.308C195.801 384.308 196.857 383.472 197.517 382.614H197.561V384H199.321V368.27H197.561ZM194.173 382.768C191.863 382.768 190.697 380.59 190.697 378.39C190.697 376.19 191.863 374.012 194.173 374.012C196.263 374.012 197.561 375.75 197.561 378.39C197.561 381.03 196.263 382.768 194.173 382.768ZM206.509 382.768C204.067 382.768 202.857 380.876 202.857 378.852H211.723C211.723 374.87 210.007 372.472 206.487 372.472C203.209 372.472 201.097 374.65 201.097 378.39C201.097 381.91 203.165 384.308 206.575 384.308C209.369 384.308 210.975 382.636 211.547 380.546H209.787C209.589 381.316 208.753 382.768 206.509 382.768ZM206.487 374.012C208.599 374.012 209.963 375.508 209.963 377.312H202.857C202.857 375.508 204.375 374.012 206.487 374.012ZM225.306 372.78V379.776C225.306 381.514 223.986 382.768 222.006 382.768C220.246 382.768 219.564 381.624 219.564 380.172V372.78H217.804V380.612C217.804 383.186 219.52 384.308 221.566 384.308C223.48 384.308 224.668 383.45 225.262 382.658H225.306V384H227.066V372.78H225.306ZM234.047 377.334C232.485 376.96 230.967 376.85 230.967 375.53C230.967 374.65 231.825 374.012 233.409 374.012C235.521 374.012 235.939 375.134 236.115 375.992H237.875C237.699 374.056 236.203 372.472 233.409 372.472C230.769 372.472 229.207 373.902 229.207 375.662C229.207 378.302 231.759 378.5 233.475 378.918C235.081 379.314 236.555 379.402 236.555 381.03C236.555 381.778 235.807 382.768 233.893 382.768C231.077 382.768 230.637 381.514 230.527 380.26H228.767C228.877 382.68 230.461 384.308 233.893 384.308C236.445 384.308 238.315 382.966 238.315 380.92C238.315 378.148 236.049 377.818 234.047 377.334ZM241.121 370.602C241.627 370.602 242.221 370.228 242.221 369.546C242.221 368.864 241.627 368.49 241.121 368.49C240.637 368.49 240.021 368.864 240.021 369.546C240.021 370.228 240.637 370.602 241.121 370.602ZM240.241 372.78V384H242.001V372.78H240.241ZM250.14 372.472C248.226 372.472 247.038 373.33 246.444 374.122H246.4V372.78H244.64V384H246.4V377.004C246.4 375.266 247.72 374.012 249.7 374.012C251.46 374.012 252.142 375.156 252.142 376.608V384H253.902V376.168C253.902 373.594 252.186 372.472 250.14 372.472ZM264.249 372.78V374.166H264.205C263.545 373.308 262.489 372.472 260.641 372.472C257.869 372.472 255.625 374.254 255.625 377.95C255.625 381.646 257.869 383.428 260.641 383.428C262.489 383.428 263.545 382.636 264.205 381.668H264.249V383.362C264.249 385.452 263.039 386.354 260.949 386.354C258.859 386.354 257.935 385.496 257.715 384.352H255.955C256.131 386.266 257.957 387.894 261.037 387.894C264.117 387.894 266.009 386.376 266.009 383.384V372.78H264.249ZM260.861 381.888C258.551 381.888 257.385 380.15 257.385 377.95C257.385 375.75 258.551 374.012 260.861 374.012C262.951 374.012 264.249 375.31 264.249 377.95C264.249 380.59 262.951 381.888 260.861 381.888ZM277.711 374.32V372.78H275.511V369.04H273.751V372.78H272.101V374.32H273.751V381.25C273.751 383.538 274.895 384.132 276.391 384.132C276.853 384.132 277.315 384.088 277.711 384V382.46C276.215 382.57 275.511 382.35 275.511 381.074V374.32H277.711ZM285.052 372.472C283.138 372.472 281.95 373.33 281.356 374.122H281.312V368.27H279.552V384H281.312V377.004C281.312 375.266 282.632 374.012 284.612 374.012C286.372 374.012 287.054 375.156 287.054 376.608V384H288.814V376.168C288.814 373.594 287.098 372.472 285.052 372.472ZM295.949 382.768C293.507 382.768 292.297 380.876 292.297 378.852H301.163C301.163 374.87 299.447 372.472 295.927 372.472C292.649 372.472 290.537 374.65 290.537 378.39C290.537 381.91 292.605 384.308 296.015 384.308C298.809 384.308 300.415 382.636 300.987 380.546H299.227C299.029 381.316 298.193 382.768 295.949 382.768ZM295.927 374.012C298.039 374.012 299.403 375.508 299.403 377.312H292.297C292.297 375.508 293.815 374.012 295.927 374.012ZM125.948 402.124C125.948 397.394 122.868 393.962 118.248 393.962C113.628 393.962 110.548 397.394 110.548 402.124C110.548 406.854 113.628 410.308 118.248 410.308C120.008 410.308 121.57 409.802 122.802 408.922L124.672 410.792L125.926 409.538L124.078 407.69C125.266 406.26 125.948 404.346 125.948 402.124ZM118.248 408.548C114.288 408.548 112.528 405.512 112.528 402.124C112.528 398.736 114.288 395.722 118.248 395.722C122.208 395.722 123.968 398.736 123.968 402.124C123.968 403.708 123.572 405.226 122.758 406.37L120.58 404.192L119.326 405.446L121.504 407.624C120.646 408.196 119.568 408.548 118.248 408.548ZM135.48 398.78V405.776C135.48 407.514 134.16 408.768 132.18 408.768C130.42 408.768 129.738 407.624 129.738 406.172V398.78H127.978V406.612C127.978 409.186 129.694 410.308 131.74 410.308C133.654 410.308 134.842 409.45 135.436 408.658H135.48V410H137.24V398.78H135.48ZM140.767 396.602C141.273 396.602 141.867 396.228 141.867 395.546C141.867 394.864 141.273 394.49 140.767 394.49C140.283 394.49 139.667 394.864 139.667 395.546C139.667 396.228 140.283 396.602 140.767 396.602ZM139.887 398.78V410H141.647V398.78H139.887ZM152.25 402.828H154.01C153.746 400.32 151.854 398.472 149.082 398.472C145.804 398.472 143.648 400.87 143.648 404.39C143.648 407.91 145.804 410.308 149.082 410.308C151.854 410.308 153.856 408.416 154.01 405.864H152.25C152.162 407.206 151.348 408.768 149.082 408.768C146.42 408.768 145.408 406.502 145.408 404.39C145.408 402.278 146.42 400.012 149.082 400.012C151.326 400.012 152.162 401.596 152.25 402.828ZM155.694 394.27V410H157.454V405.578L159.192 403.972L163.174 410H165.264L160.424 402.938L164.802 398.78H162.602L157.454 403.598V394.27H155.694ZM172.437 394.27V410H182.667V408.24H174.417V394.27H172.437ZM188.787 410.308C185.355 410.308 183.287 407.888 183.287 404.39C183.287 400.892 185.355 398.472 188.787 398.472C192.197 398.472 194.265 400.892 194.265 404.39C194.265 407.888 192.197 410.308 188.787 410.308ZM188.787 408.768C191.295 408.768 192.505 406.788 192.505 404.39C192.505 401.992 191.295 400.012 188.787 400.012C186.257 400.012 185.047 401.992 185.047 404.39C185.047 406.788 186.257 408.768 188.787 408.768ZM204.028 398.78V400.166H203.984C203.324 399.308 202.268 398.472 200.42 398.472C197.648 398.472 195.404 400.254 195.404 403.95C195.404 407.646 197.648 409.428 200.42 409.428C202.268 409.428 203.324 408.636 203.984 407.668H204.028V409.362C204.028 411.452 202.818 412.354 200.728 412.354C198.638 412.354 197.714 411.496 197.494 410.352H195.734C195.91 412.266 197.736 413.894 200.816 413.894C203.896 413.894 205.788 412.376 205.788 409.384V398.78H204.028ZM200.64 407.888C198.33 407.888 197.164 406.15 197.164 403.95C197.164 401.75 198.33 400.012 200.64 400.012C202.73 400.012 204.028 401.31 204.028 403.95C204.028 406.59 202.73 407.888 200.64 407.888ZM209.302 396.602C209.808 396.602 210.402 396.228 210.402 395.546C210.402 394.864 209.808 394.49 209.302 394.49C208.818 394.49 208.202 394.864 208.202 395.546C208.202 396.228 208.818 396.602 209.302 396.602ZM208.422 398.78V410H210.182V398.78H208.422ZM218.321 398.472C216.407 398.472 215.219 399.33 214.625 400.122H214.581V398.78H212.821V410H214.581V403.004C214.581 401.266 215.901 400.012 217.881 400.012C219.641 400.012 220.323 401.156 220.323 402.608V410H222.083V402.168C222.083 399.594 220.367 398.472 218.321 398.472ZM238.221 406.062L239.607 410H241.653L235.867 394.27H233.667L227.859 410H229.905L231.291 406.062H238.221ZM231.951 404.302L234.745 396.096H234.789L237.583 404.302H231.951ZM248.461 398.472C246.613 398.472 245.557 399.308 244.897 400.166H244.853V398.78H243.093V413.784H244.853V408.548H244.897C245.557 409.516 246.613 410.308 248.461 410.308C251.233 410.308 253.477 408.086 253.477 404.39C253.477 400.694 251.233 398.472 248.461 398.472ZM248.241 408.768C246.151 408.768 244.853 407.03 244.853 404.39C244.853 401.75 246.151 400.012 248.241 400.012C250.551 400.012 251.717 402.19 251.717 404.39C251.717 406.59 250.551 408.768 248.241 408.768ZM260.685 398.472C258.837 398.472 257.781 399.308 257.121 400.166H257.077V398.78H255.317V413.784H257.077V408.548H257.121C257.781 409.516 258.837 410.308 260.685 410.308C263.457 410.308 265.701 408.086 265.701 404.39C265.701 400.694 263.457 398.472 260.685 398.472ZM260.465 408.768C258.375 408.768 257.077 407.03 257.077 404.39C257.077 401.75 258.375 400.012 260.465 400.012C262.775 400.012 263.941 402.19 263.941 404.39C263.941 406.59 262.775 408.768 260.465 408.768Z" fill="#FBFBFB"/>
<path opacity="0.5" d="M376.4 162.9L375.8 162.2H374.6V52.6C374.6 23.5 351 0 322 0H55.7C26.7 0 3.10001 23.5 3.10001 52.6V96.2H0.600006L0 96.9C0.3 102.8 0.3 119.8 0 125.7L0.600006 126.4V126.5H3.10001V162.2H0.600006L0 162.9C0.3 168.8 0.3 211.3 0 217.2L0.600006 217.9V218H3.10001V232.1H0.600006V232.2L0 232.9C0.3 238.8 0.3 281.3 0 287.2L0.600006 287.9H3.10001V512H8.20001V54.3C8.20001 27.1 30.3 5 57.5 5H320.2C347.4 5 369.5 27.1 369.5 54.3V512H374.6V245.2H375.8V245.1L376.4 244.4C376.1 238.5 376.1 168.8 376.4 162.9Z" fill="#144F53"/>
</svg>
